<svg width="22" height="22" xmlns="http://www.w3.org/2000/svg" xmlns:xlink="http://www.w3.org/1999/xlink" xml:space="preserve" overflow="hidden"><defs><clipPath id="clip0"><rect x="725" y="124" width="22" height="22"/></clipPath></defs><g clip-path="url(#clip0)" transform="translate(-725 -124)"><path d="M730.729 135C730.729 134.62 731.037 134.312 731.417 134.312L738.924 134.312 736.889 132.277C736.63 132 736.646 131.565 736.923 131.306 737.188 131.06 737.597 131.06 737.861 131.306L741.069 134.514C741.337 134.783 741.337 135.217 741.069 135.486L737.861 138.694C737.583 138.953 737.148 138.938 736.889 138.66 736.643 138.396 736.643 137.987 736.889 137.723L738.924 135.688 731.417 135.688C731.037 135.688 730.729 135.38 730.729 135Z" fill="#7F7F7F"/><path d="M744.708 135C744.708 130.191 740.809 126.292 736 126.292 731.191 126.292 727.292 130.191 727.292 135 727.292 139.809 731.191 143.708 736 143.708 740.809 143.708 744.708 139.809 744.708 135ZM743.333 135C743.333 139.05 740.05 142.333 736 142.333 731.95 142.333 728.667 139.05 728.667 135 728.667 130.95 731.95 127.667 736 127.667 740.05 127.667 743.333 130.95 743.333 135Z" fill="#7F7F7F"/></g></svg>