<svg width="21" height="21" xmlns="http://www.w3.org/2000/svg" xmlns:xlink="http://www.w3.org/1999/xlink" xml:space="preserve" overflow="hidden"><defs><clipPath id="clip0"><rect x="726" y="146" width="21" height="21"/></clipPath></defs><g clip-path="url(#clip0)" transform="translate(-726 -146)"><path d="M736.495 148.188C731.907 148.188 728.188 151.907 728.188 156.495 728.188 161.084 731.907 164.803 736.495 164.803 741.084 164.803 744.803 161.084 744.803 156.495 744.803 156.495 744.803 156.495 744.803 156.495 744.805 151.908 741.088 148.189 736.502 148.188 736.5 148.188 736.498 148.188 736.495 148.188ZM738.508 156.892C737.297 158.1 736.08 159.319 734.855 160.549 733.814 159.503 732.77 158.46 731.724 157.419L732.77 156.373 734.855 158.457C735.867 157.431 736.873 156.412 737.874 155.399 738.873 154.388 739.427 153.844 740.464 152.842 740.493 152.813 740.524 152.784 740.558 152.755 740.591 152.727 740.62 152.695 740.646 152.66L741.706 153.706C740.474 154.931 739.718 155.683 738.508 156.892Z" fill="#4F81BD"/></g></svg>