<svg width="20" height="20" xmlns="http://www.w3.org/2000/svg" xmlns:xlink="http://www.w3.org/1999/xlink" xml:space="preserve" overflow="hidden"><defs><clipPath id="clip0"><rect x="726" y="167" width="20" height="20"/></clipPath></defs><g clip-path="url(#clip0)" transform="translate(-726 -167)"><path d="M735.997 169.083C731.627 169.083 728.084 172.626 728.084 176.996 728.084 181.366 731.627 184.908 735.996 184.908 740.366 184.908 743.909 181.366 743.909 176.996 743.909 176.996 743.909 176.995 743.909 176.995 743.911 172.627 740.371 169.085 736.003 169.083 736.001 169.083 735.999 169.083 735.997 169.083ZM739.532 179.535 738.536 180.531 735.997 177.991 733.458 180.531 732.462 179.535 735 176.995 732.461 174.456 733.458 173.46 735.997 176 738.536 173.46 739.532 174.456 736.993 176.995Z" fill="#C00000"/></g></svg>