<svg width="25" height="25" xmlns="http://www.w3.org/2000/svg" xmlns:xlink="http://www.w3.org/1999/xlink" xml:space="preserve" overflow="hidden"><defs><clipPath id="clip0"><rect x="682" y="151" width="25" height="25"/></clipPath></defs><g clip-path="url(#clip0)" transform="translate(-682 -151)"><path d="M690.854 157.25 692.417 157.25 692.417 161.156 690.854 161.156Z"/><path d="M699.188 162.198 689.812 162.198 689.812 156.208 699.188 156.208 699.188 162.198ZM694.5 168.969C693.068 168.969 691.896 167.797 691.896 166.365 691.896 164.932 693.068 163.76 694.5 163.76 695.932 163.76 697.104 164.932 697.104 166.365 697.104 167.797 695.932 168.969 694.5 168.969ZM702.312 154.646 699.188 154.646 689.812 154.646 688.25 154.646 685.646 157.25 685.646 171.312C685.646 171.885 686.115 172.354 686.688 172.354L702.312 172.354C702.885 172.354 703.354 171.885 703.354 171.312L703.354 155.688C703.354 155.115 702.885 154.646 702.312 154.646Z"/><path d="M693.719 165.583 695.281 165.583 695.281 167.146 693.719 167.146Z"/></g></svg>